#!OML:ASF F:\VICON\USERDATA\INSTALL\rory3\rory3.ASF
:FULLY-SPECIFIED
:DEGREES
745
root -1.47295 16.1448 7.46967 16.2211 -5.99998 -6.43438
lowerback -1.07459 0.422953 8.42828
upperback -4.90276 0.731055 1.1746
thorax -4.4276 0.0508466 -3.51298
lowerneck -14.0744 -6.93464 -9.39945
upperneck 17.0498 -8.30065 4.39794
head 8.19315 -4.13611 2.03393
rclavicle -1.96393e-014 1.13804e-014
rhumerus -39.3934 12.6089 -86.4083
rradius 50.5474
rwrist 13.6367
rhand -25.2636 -50.9518
rfingers 7.12502
rthumb 1.25698 -80.9278
lclavicle -1.96393e-014 1.13804e-014
lhumerus -48.575 0.953785 78.7534
lradius 60.7875
lwrist -2.02997
lhand -32.9384 -44.201
lfingers 7.12502
lthumb -6.1547 -14.3104
rfemur -38.8081 10.6884 31.7065
rtibia 54.075
rfoot -22.2606 -18.8626
rtoes -7.22841
lfemur -66.4631 30.0279 1.98567
ltibia 129.27
lfoot -16.5532 -11.495
ltoes -5.59916
746
root -1.51461 16.162 7.50797 15.8241 -6.0764 -5.48131
lowerback -1.40096 0.437189 7.853
upperback -4.50826 0.675594 0.759266
thorax -3.82566 0.0704743 -3.62115
lowerneck -14.412 -6.9794 -9.38791
upperneck 17.1123 -8.37885 4.62226
head 8.28867 -4.14487 2.08645
rclavicle 1.4474e-015 -2.05742e-014
rhumerus -39.2274 12.5607 -86.4827
rradius 51.1715
rwrist 13.6529
rhand -25.4222 -50.7342
rfingers 7.12502
rthumb 1.10375 -80.7111
lclavicle 1.4474e-015 -2.05742e-014
lhumerus -48.4779 0.743827 78.7277
lradius 61.2045
lwrist -0.600451
lhand -32.9387 -43.7353
lfingers 7.12502
lthumb -6.15501 -13.8447
rfemur -38.4332 9.98181 30.9675
rtibia 54.3639
rfoot -22.735 -18.591
rtoes -7.18158
lfemur -66.2111 26.9078 0.24801
ltibia 128.047
lfoot -16.4047 -10.5232
ltoes -4.11227
747
root -1.55304 16.1873 7.48716 15.3884 -5.8607 -5.03089
lowerback -0.608319 0.340151 7.66951
upperback -4.38154 0.606865 0.558403
thorax -4.1482 0.030578 -3.73301
lowerneck -14.5841 -6.98398 -9.49039
upperneck 17.1504 -8.4125 4.94653
head 8.35354 -4.13284 2.20148
rclavicle -5.58461e-015 6.95746e-016
rhumerus -39.2644 12.7793 -86.5998
rradius 51.9695
rwrist 13.8245
rhand -25.031 -51.5218
rfingers 7.12502
rthumb 1.4816 -81.4965
lclavicle -5.58461e-015 6.95746e-016
lhumerus -48.4983 0.381727 78.7917
lradius 61.7757
lwrist 0.765243
lhand -32.9027 -43.4431
lfingers 7.12502
lthumb -6.12026 -13.5515
rfemur -38.1056 9.37099 30.8307
rtibia 54.2716
rfoot -22.8064 -18.2419
rtoes -6.60265
lfemur -66.8126 24.6622 -0.633555
ltibia 127.15
lfoot -16.1531 -9.92267
ltoes -6.37602
748
root -1.59159 16.2365 7.48463 14.8837 -5.32199 -4.44088
lowerback -0.0228046 0.172829 7.48274
upperback -4.38207 0.426056 0.346653
thorax -4.50203 -0.0697178 -3.84791
lowerneck -13.8738 -6.93075 -9.80324
upperneck 16.9467 -8.40941 5.32695
head 8.19062 -4.12791 2.40028
rclavicle -5.7337e-015 5.1684e-015
rhumerus -39.8906 13.0891 -86.7835
rradius 52.9393
rwrist 14.0063
rhand -25.3383 -51.8967
rfingers 7.12502
rthumb 1.18486 -81.8732
lclavicle -5.7337e-015 5.1684e-015
lhumerus -48.9156 -0.312552 78.9973
lradius 62.39
lwrist 1.8019
lhand -33.0186 -43.6192
lfingers 7.12502
lthumb -6.23221 -13.7309
rfemur -37.4122 8.37716 30.6117
rtibia 53.7472
rfoot -22.6255 -17.9212
rtoes -6.22555
lfemur -67.2196 22.2748 -1.50776
ltibia 126.24
lfoot -15.8744 -8.95246
ltoes -10.0544
749
root -1.63083 16.2938 7.49517 14.6907 -5.42887 -4.00902
lowerback -0.0905705 0.341861 7.32479
upperback -4.21552 0.62677 0.109641
thorax -4.26058 0.0447313 -4.01323
lowerneck -13.6942 -6.89116 -10.2424
upperneck 17.0758 -8.40335 5.92336
head 8.24842 -4.10086 2.67515
rclavicle -5.93869e-015 -1.89839e-014
rhumerus -40.246 13.2155 -86.8308
rradius 53.8358
rwrist 14.1507
rhand -26.2124 -51.1898
rfingers 7.12502
rthumb 0.340587 -81.1692
lclavicle -5.93869e-015 -1.89839e-014
lhumerus -48.9664 -1.20208 79.276
lradius 63.0109
lwrist 2.19673
lhand -33.0374 -43.6317
lfingers 7.12502
lthumb -6.2503 -13.744
rfemur -36.7424 7.9125 30.3346
rtibia 52.8761
rfoot -22.1867 -17.4115
rtoes -6.24958
lfemur -67.5635 21.2791 -2.22137
ltibia 125.532
lfoot -15.459 -8.72963
ltoes -10.469
750
root -1.66665 16.3821 7.53144 14.4283 -5.42459 -3.50047
lowerback -0.321318 0.461116 7.17532
upperback -3.99799 0.746266 -0.142456
thorax -3.88305 0.124464 -4.1928
lowerneck -13.7743 -6.8004 -10.6486
upperneck 17.4047 -8.33684 6.60721
head 8.41614 -4.03059 2.97689
rclavicle -1.88845e-015 -1.61016e-014
rhumerus -40.6153 13.5956 -86.94
rradius 54.7564
rwrist 14.1408
rhand -27.1922 -50.3233
rfingers 7.12502
rthumb -0.605681 -80.3021
lclavicle -1.88845e-015 -1.61016e-014
lhumerus -48.9714 -2.16446 79.5295
lradius 63.6245
lwrist 2.02387
lhand -32.933 -43.4383
lfingers 7.12502
lthumb -6.1495 -13.5476
rfemur -35.6597 7.35448 29.9599
rtibia 51.6158
rfoot -21.8731 -16.8541
rtoes -6.22348
lfemur -67.584 20.1104 -3.00019
ltibia 124.808
lfoot -15.1024 -8.59714
ltoes -8.18972
